# xmcd
#
# Track frame offsets: 
#        150
#        16760
#        39147
#        61466
#        83151
#        105360
#        122319
#        135755
#        149617
#        168086
#        192922
#        210657
#
# Disc length: 3139 seconds
#
# Revision: 0
# Processed by: cddbd v1.5.1PL0 Copyright (c) Steve Scherf et al.
# Submitted via: ExactAudioCopy v0.95a5
#
DISCID=8c0c410c
DTITLE=Blake Powers - Old Blevins Rd
DYEAR=2001
DGENRE=Texas
TTITLE0=Texas Bar
TTITLE1=Brought Up Texan
TTITLE2=Hey, Kirby
TTITLE3=Time Stand Still
TTITLE4=Dallas Bound Greyhound
TTITLE5=Jennifer
TTITLE6=Passing Highway Lines
TTITLE7=Sometimes
TTITLE8=Anywhere Without You
TTITLE9=Old Blevins Road
TTITLE10=Silence
TTITLE11=Ellis County Line
EXTD=
EXTT0=
EXTT1=
EXTT2=
EXTT3=
EXTT4=
EXTT5=
EXTT6=
EXTT7=
EXTT8=
EXTT9=
EXTT10=
EXTT11=
PLAYORDER=
